<?xml version="1.0" encoding="UTF-8"?>
<svg id="Layer_1" data-name="Layer 1" xmlns="http://www.w3.org/2000/svg" viewBox="0 0 479.54 213.79">
  <defs>
    <style>
      .cls-1 {
        fill: #fff;
        stroke-width: 0px;
      }
    </style>
  </defs>
  <path class="cls-1" d="m325.26,81.93c1.41.94,2.82,1.88,4.23,2.82.08.06.2.08.27.15.68.72,1.23,1.76,2.06,2.08,1.17.46,1.61,1.41,1.84,2.27.43,1.66,1.14,3.37.29,5.15-.36.77-.78,1.35-1.69,1.39-.17,0-.41-.04-.5.05-.99,1.03-1.8.25-2.6-.26-2.53-1.61-4.41-3.92-6.36-6.14-1.48-1.69-2.95-3.39-4.4-5.1-.37-.44-.78-.89-1-1.4-.6-1.37-1.68-2.1-3.05-2.5-1.67-.48-3.35-.91-5-1.45-1.39-.45-2.72-1.06-4.1-1.52-1.45-.48-2.94-.84-4.39-1.32-1.28-.43-2.53-.96-3.79-1.45-.25-.1-.5-.24-.76-.28-1.82-.33-3.65-.62-5.46-.97-.52-.1-1.01-.37-1.52-.56-.76-.28-1.51-.57-2.28-.83-.84-.28-1.68-.52-2.53-.76-.32-.09-.66-.23-.99-.21-1.01.05-1.94,0-2.75-.77-.25-.24-.77-.21-1.16-.3-.63-.14-1.26-.28-1.89-.39-1.9-.33-3.81-.58-5.69-.99-1.04-.23-2.07-.62-3.02-1.11-.74-.38-1.32-.46-2.08-.05-2.94,1.58-5.86,3.2-8.89,4.58-2.31,1.05-4.76,1.77-7.16,2.62-.89.32-1.8.59-2.7.87-.29.09-.61.25-.88.2-2.07-.35-3.94.53-5.9.89-3.67.68-7.37,1.23-11.08,1.71-1.15.15-2.36-.12-3.58-.2.01-.03-.05.05-.03.07,1.78,2.89,3.56,5.78,5.34,8.67.25.4.64.82.66,1.24.05,1.22.85,1.94,1.51,2.8.78,1.02,1.46,2.13,2.1,3.25.63,1.09-.32,1.67-.89,2.34-.55.64-1.06.12-1.41-.17-.78-.63-1.59-1.3-2.15-2.13-3.39-5.06-6.72-10.17-10.07-15.25-.11-.16-.23-.4-.39-.44-.95-.22-1.92-.54-2.88-.55-4.18-.03-8.18-1-12.05-2.4-3.38-1.21-6.72-2.59-9.71-4.65-1-.69-1.89-1.53-2.94-2.12-1.09-.61-2.07-1.23-2.56-2.44-.06-.16-.31-.29-.49-.34-1.65-.4-2.45-1.73-3.32-2.99-.51-.73-.33-.93.5-1.28,2.9-1.23,5.96-.71,8.96-.93,2.37-.18,4.73-.44,7.1-.71,2.14-.24,4.27-.55,6.38-.82-1.61-3.42-3.26-6.86-4.85-10.33-.45-.98-.72-2.04-1.15-3.04-.15-.36-.49-.7-.83-.87-.12-.06-.52.37-.77.61-1.25,1.17-2,2.93-3.96,3.3-.49.09-.91.52-1.46.86-.55-.56-.96-.14-1.43.43-.25.31-.69.56-1.08.66-2.5.63-5.01,1.21-7.51,1.81-.1.02-.2.06-.28.11-2.24,1.64-4.99,1.24-7.47,1.89-2.14.56-4.27,1.15-6.41,1.67-1.48.36-2.99.6-4.48.94-.79.18-1.54.55-2.33.71-1.54.32-3.1.49-4.63.84-3.35.77-6.68,1.6-10.01,2.42-3,.73-5.97,1.7-9.01,2.18-6.7,1.07-13.18,3.03-19.77,4.56-1.55.36-3.17.44-4.73.77-1.26.26-2.49.66-3.71,1.06-2.03.66-4.05,1.39-6.07,2.07-.35.12-.74.2-1.1.18-3.1-.15-5.95,1.1-8.93,1.63-1.29.23-2.51.83-3.75,1.3-.96.36-1.89.56-2.85.03-.18-.1-.59-.09-.7.03-1.04,1.26-2.6,1.22-3.97,1.64-.7.21-1.36.53-2.05.8-.22.08-.44.24-.65.22-1.47-.09-2.81.3-4.14.93-1.15.54-2.38.92-3.57,1.37-.1.04-.19.09-.29.09-4.66.21-8.87,2.18-13.27,3.43-5.13,1.45-10.22,3.05-15.41,4.47.21-.15.39-.36.63-.46,2.46-1.07,4.9-2.15,7.38-3.16,1.48-.6,2.99-1.12,4.51-1.62,1.45-.48,2.96-.8,4.36-1.39,1.76-.75,3.62-.97,5.43-1.44,2.83-.74,5.77-1.38,8.25-3.15.18-.13.45-.2.67-.2,2.78-.04,5.33-1.04,7.87-2.01,1.44-.55,2.87-1.07,4.45-.94.29.02.63-.02.9-.15,2.1-1.02,4.39-1.14,6.65-1.42.8-.1,1.56-.41,2.35-.62.62-.17,1.24-.34,1.87-.48,3.22-.71,6.45-1.36,9.64-2.14,1.47-.36,2.89-.84,4.41-1.09,1.35-.22,2.73-.63,4.1-.93,4.74-1.05,9.48-2.13,14.22-3.21.69-.16,1.35-.47,2.04-.64.82-.2,1.65-.33,2.48-.48.33-.06.69-.01,1.01-.1,5.54-1.55,11.24-2.33,16.84-3.59,2.85-.64,5.66-1.48,8.5-2.18,1.15-.28,2.34-.42,3.5-.63.29-.05.57-.16.84-.26.22-.08.43-.3.64-.3,3.09.06,5.74-1.6,8.65-2.24,1.19-.26,2.35-.71,3.56-.89.76-.11,1.49-.07,2-.81.08-.12.53-.1.74,0,1.45.64,1.9.56,3.01-.57.12-.12.25-.23.41-.38.2.13.41.23.59.37.57.44,1.08.38,1.48-.22.98-1.49,2.27-2.33,4.13-2.4.7-.03,1.38-.52,2.07-.8,1.12-.46,2.23-.96,3.37-1.38.96-.35,1.44-1.05,1.47-2,.03-1.02-.1-2.04-.17-3.06,0-.1,0-.24-.06-.29-1.18-1.07-.97-2.69-1.62-3.97-.09-.18-.08-.4-.14-.59-.32-1.25-.49-2.56-1.01-3.73-1.39-3.12-1.7-6.49-2.56-9.74-.92-3.5-1.21-7.02-1.34-10.58-.03-.71-.11-1.43-.27-2.12-1.23-5.49,1.89-9.53,7.49-9.97,5-.4,9.63.88,14.24,2.55,2.39.86,4.88,1.45,7.31,2.22,1.16.37,2.28.86,3.41,1.31.25.1.48.28.74.35,4.01,1.08,7.43,3.55,11.36,4.85,1.63.54,2.97,1.57,4.2,2.81,1.34,1.35,2.88,2.49,4.25,3.82,1.47,1.42,2.89,2.89,4.21,4.44.47.56.69,1.4.85,2.15.28,1.29.13,2.78.72,3.87.81,1.5.16,2.65-.1,3.99-.26,1.32-.19,2.71-.19,4.07,0,.68.86.87,1.84.57,1.91-.6,3.84-1.14,5.75-1.74.67-.21,1.31-.51,1.97-.72.38-.12.79-.15,1.19-.23.77-.16,1.54-.34,2.31-.5.19-.04.4-.02.6-.05,1.4-.19,2.86-.21,4.2-.62,2.69-.83,5.43-1.27,8.21-1.48.41-.03.82-.05,1.22-.14.68-.15.8-.52.59-1.21-.23-.78-.25-1.62-.33-2.44-.02-.23.15-.6.05-.69-1.16-1.05-.43-2.47-.64-3.67-.35-2.09-1.09-4.15-.84-6.36.11-.95-.35-1.96-.58-2.94-.25-1.09-.7-2.17-.75-3.26-.12-2.41-.04-4.83-.04-7.37.87,0,1.76-.1,2.6.04.4.07.73.6,1.07.94.08.08.12.26.11.39-.06,2.07.57,3.99,1.32,5.88.1.25.18.54.16.8-.31,3.16,1.29,5.86,2.07,8.75.33,1.21.58,2.45.97,3.64.54,1.64,1.16,3.25,1.8,4.86.09.22.52.44.79.44,2.02-.05,4.05.34,6.06-.37.95-.33,2.08-.11,3.12-.23,1.03-.11,2.04-.33,3.06-.51.2-.03.38-.14.58-.15,3.63-.22,7.26-.48,10.89-.64,2.82-.12,5.68.14,8.46-.24,7.03-.98,14.09-.26,21.12-.6.61-.03,1.27.21,1.84.48,1.04.49,1.99.49,3.03-.01.56-.27,1.24-.46,1.84-.42,3.39.24,6.64-.41,9.84-1.42.71-.22,1.46-.29,2.2-.42.13-.02.29.02.4-.04,2.2-1.23,4.75-.84,7.07-1.51.62-.18,1.24-.35,1.87-.51.22-.06.51-.17.66-.08.94.59,1.81.24,2.74-.02,1.4-.39,2.82-.73,4.25-.96.42-.07,1.03.16,1.33.47.8.81,1.63,1.05,2.76.87.76-.12,1.58.12,2.36.28.63.12,1.23.35,1.98.57-.12.23-.25.47-.37.71-.24.49-.42,1.01-.71,1.46-.28.43-.59.98-1.01,1.13-1.12.38-2.33.85-3.45.74-.91-.09-1.43-.1-1.8.75-.04.09-.23.17-.35.16-.93-.09-1.86-.2-2.79-.3-.23-.03-.52-.12-.7-.03-1.15.57-2.33.27-3.5.19-.53-.03-1.12-.04-1.61.14-2.82,1.05-5.74.63-8.61.49-.82-.04-1.59-.13-2.42,0-.54.09-1.13-.17-1.67-.1-2,.27-4.02.5-5.98.96-2.14.5-4.25,1.18-6.33,1.9-2.5.87-4.91,2.03-7.45,2.77-2.54.73-4.75,2.11-7.16,3.1-1.37.56-2.61,1.46-3.94,2.13-.9.46-1.9.72-2.79,1.2-3.16,1.73-6.28,3.54-9.44,5.26-.89.48-1.7.87-2.22,1.88-.31.6-1.2.94-1.88,1.3-.84.44-1.75.75-2.59,1.19-.4.21-.85.54-1.04.93-.47,1.01-1.25,1.54-2.25,1.93-1.11.44-1.3,1.28-.68,2.31,2.89,4.85,5.78,9.7,8.64,14.56.62,1.05,1.12,2.18,1.64,3.29.74,1.57,1.81,2.57,3.68,2.57.6,0,1.18.49,1.8.62,2.25.46,4.51.88,6.77,1.29,1.27.23,2.54.51,3.83.63,3.68.35,7.37.83,11.06.88,6.64.1,13.28-.06,19.92-.16,1.32-.02,2.64-.24,3.95-.36,1.45-.13,2.9-.24,4.35-.39.71-.07,1.4-.2,2.11-.29.25-.03.58-.12.76,0,.77.49,1.47.37,2.2-.07.28-.17.63-.26.96-.31,1.48-.23,2.96-.43,4.44-.63,1.81-.25,3.75-.17,5.39-.84,1.59-.65,3.08-.13,4.55-.4,2.4-.44,4.75-1.12,7.12-1.7.39-.1.8-.15,1.19-.26,1.36-.39,2.71-.79,4.06-1.19.16-.05.3-.18.46-.21,2.25-.43,4.5-.83,6.74-1.27,1.4-.28,2.79-.58,4.17-.94,3.42-.9,6.83-1.81,10.23-2.78,1.2-.34,2.35-.86,3.54-1.28,1.02-.36,2.04-.71,3.08-1.03,1.94-.59,3.94-1.04,5.84-1.76,4.74-1.81,9.39-3.82,13.71-6.51.42-.26.92-.52,1.41-.56.74-.06,1.33-.12,1.49-1.01.03-.15.47-.26.73-.33.35-.09.77-.03,1.07-.19,2.06-1.14,4.05-2.4,6.14-3.46,1.87-.94,3.84-1.7,5.8-2.47,2.62-1.03,5.28-1.98,7.91-2.98.72-.27,1.4-.8,2.12-.86.64-.05,1.4.29,1.95.68.26.18.34,1.01.15,1.35-1.28,2.28-2.65,4.51-3.98,6.77-.21.36-.3.79-.45,1.19-.32.81-.55,1.67-.98,2.43-1.37,2.42-2.78,4.83-4.24,7.2-.43.71-1.04,1.32-1.63,1.91-.15.15-.63.19-.8.07-.17-.12-.3-.6-.2-.77.65-1.1,1.36-2.15,2.05-3.23.15-.24.26-.51.4-.77.48-.92.96-1.84,1.44-2.76.3-.56.7-1.09.89-1.68.68-2.06,1.27-4.15,1.95-6.21.17-.53.3-.95-.2-1.36-.5-.41-.84-.18-1.36.04-1.04.45-2.16.69-3.25,1.01-.35.1-.79.06-1.05.27-2.3,1.84-5.04,2.79-7.65,4.03-4.36,2.06-8.66,4.27-12.98,6.41-4.12,2.04-8.33,3.85-12.72,5.25-2.18.7-4.27,1.71-6.4,2.58-.09.04-.18.15-.27.14-2.45-.21-4.51,1.17-6.78,1.71-4.33,1.03-8.59,2.42-12.96,3.18-3.43.59-6.46,2.27-9.82,2.94-.29.06-.63.21-.88.12-1.18-.39-2.26.01-3.4.25-3.35.7-6.72,1.33-10.09,1.94-2.29.41-4.6.79-6.91,1.07-1.48.18-2.98.14-4.47.24-.63.05-1.25.25-1.87.35-.69.11-1.38.16-2.07.28-.71.13-1.42.3-2.12.47-.32.07-.63.24-.95.24-1.97.03-3.95,0-5.92.02-1.03,0-2.11-.36-3.04.41-1.51-.81-2.98.65-4.52.05-.71-.28-1.53-.4-2.3-.41-3.03-.06-6.06.02-9.08-.08-1.69-.05-3.37-.36-5.06-.52-1.11-.1-2.23-.09-3.34-.21-1.27-.14-2.52-.42-3.78-.56-1.09-.12-2.2-.14-3.3-.2-.03.13-.06.26-.09.39Zm-73.7-49.76c-.37-3.59-.77-6.45-2.99-8.72-1.57-1.6-3.01-3.32-4.52-4.97-.37-.4-.76-.8-1.22-1.08-5.09-3.08-10.32-5.91-15.95-7.87-5.2-1.81-10.43-3.53-15.69-5.14-2.99-.91-6.06-1.09-9.08.1-.27.11-.62.16-.89.09-.64-.16-.96.11-1.15.68-.58,1.7-1.18,3.4-1.74,5.11-.35,1.07-.35,2.13.26,3.15.18.3.27.74.2,1.08-.29,1.53.06,2.96.5,4.41.62,2.05,1,4.18,1.76,6.17.75,1.96,1.01,4.18,2.73,5.69.07.06.1.18.14.27.78,1.96,1.54,3.93,2.35,5.87.89,2.13,1.81,4.25,2.76,6.36,2.34,5.21,4.7,10.4,7.07,15.6.18.39.45.76.76,1.06.14.14.47.11.72.1.4-.02.79-.08,1.19-.12.25-.03.51-.03.73-.12.36-.14.67-.41,1.04-.52,1.59-.49,3.21-.9,4.79-1.42,2.85-.93,5.27-2.34,6.67-5.24.93-1.93,2.42-3.54,4.25-4.75,3.94-2.62,7.91-5.18,11.81-7.86.83-.57,1.72-1.4,2.05-2.31.72-2,1.09-4.11,1.46-5.6Zm-17.54,25.71c1.39,2.05,2.89,2.83,5.22,2.79.46,0,1.06-.04,1.36.21,1.55,1.34,3.37,1.24,5.22,1.26.66,0,1.31.32,1.98.47.27.06.64.19.8.07.59-.43,1.12-.28,1.73-.08.87.28,1.77.59,2.67.66,3.24.22,6.33,1.46,9.61,1.44.2,0,.41.05.59.14,2.52,1.25,4.54.33,6.34-1.48,1.66-1.66,3.32-3.33,4.99-4.98,2.05-2.03,3.16-4.56,3.99-7.25.2-.64.41-1.29.76-1.85,1.71-2.79,2.84-5.73,2.6-9.07-.01-.17-.04-.39.05-.49.94-1.06.63-2.32.5-3.51-.03-.27-.43-.68-.7-.7-.77-.08-1.57-.06-2.34.05-1.87.27-3.72.58-5.58.93-.98.18-1.94.51-2.92.68-2.7.47-5.47.66-8,1.87-.31.15-.72.09-1.09.14-.77.1-1.55.13-2.29.33-2.19.6-4.38,1.23-6.54,1.93-.57.18-1.16.57-1.52,1.04-1.76,2.28-3.18,4.9-5.23,6.86-2.64,2.51-5.75,4.55-8.72,6.7-1.03.75-2.27,1.22-3.47,1.84Zm69.85,16.61c-1.03-1.07-1.99-1.94-2.8-2.93-1.23-1.49-2.56-2.95-3.5-4.61-1.9-3.36-1.14-7.73,1.69-10.17.17-.14.33-.47.28-.66-.36-1.38-.91-2.65-1.87-3.77-.8-.94-1.37-2.08-2.02-3.14-1.11-1.83-2.18-3.67-3.29-5.49-.94-1.53-1.92-3.04-2.86-4.57-.12-.2-.23-.43-.26-.66-.19-1.54-1.37-2.53-2.12-3.75-.12-.2-.63-.33-.86-.24-.22.08-.36.48-.46.76-.07.18-.01.4,0,.61.12,3.33-.43,6.58-1.27,9.79-.39,1.49-1.62,2.82-.82,4.54.06.12-.1.39-.23.54-2.4,2.83-4.01,6.15-5.79,9.36-.33.59-.91,1.08-1.43,1.53-.61.53-1.32.94-1.95,1.46-1.04.85-2.04,1.75-3.05,2.63.42.41.97.95,1.36,1.34.61.03,1.13-.06,1.53.11,1.15.48,2.24,1.08,3.37,1.6.26.12.58.1.88.12,1.15.06,2.33-.03,3.45.19.9.18,1.57,1.04,2.7.83.74-.13,1.56.17,2.34.3.53.09,1.06.19,1.57.36,1.82.64,3.62,1.34,5.44,1.98,1.22.42,2.45.83,3.7,1.14,1.63.4,3.28.72,4.94,1.02.36.07.77-.11,1.36-.21Zm-12.12-41.07c.16.67.17,1.45.51,2.05,2.41,4.34,4.9,8.64,7.32,12.98.53.94,1.29,1.16,2.28,1.4,1.48.35,2.72.42,3.96-.6.61-.5,1.41-.77,2.13-1.12,2.68-1.33,4.78-3.63,7.72-4.52.19-.06.38-.17.52-.32.98-1.01,2.25-1.48,3.53-1.94.76-.28,1.45-.74,2.16-1.14,1.37-.75,2.72-1.54,4.1-2.26,1.29-.68,2.63-1.28,3.93-1.94.45-.23.84-.59,1.3-.79,1.59-.68,3.18-1.34,4.8-1.96,1.23-.47,2.48-.92,3.74-1.28.63-.18.84-.47.73-1.09-.15-.04-.28-.09-.41-.1-3.2-.06-6.4-.13-9.6-.16-.64,0-1.29.13-1.93.22-1.05.15-2.09.31-3.14.46-1.06-1.3-1.91.6-2.92.2-.09-.04-.21-.05-.3-.02-1.82.65-3.76-1-5.56.28-.13.09-.45-.12-.68-.11-1.45.04-2.95-.11-4.32.23-1.14.29-2.2.61-3.38.44-.47-.07-1.01-.2-1.41-.04-2.07.83-4.21.48-6.34.55-2.82.09-5.63.36-8.75.58Zm-28.95,34.3c-3.19-.76-5.97-1.75-9.01-1.67-1.89.05-3.91-.2-5.68-.83-1.79-.64-3.63-.57-5.41-1-.23-.05-.5-.12-.7-.04-1.09.39-2.05.02-3.06-.34-.95-.34-1.96-.54-2.95-.76-1.38-.3-2.75-.61-3.67-1.8-.82-1.07-1.91-1.32-3.1-.96-1.72.52-3.41,1.12-5.09,1.77-.85.33-1.69.52-2.43-.02-1.2-.88-1.7.13-2.36.74-.67.63-.84,1.31-.36,2.19.97,1.75,1.85,3.56,2.79,5.33.83,1.56,1.67,3.11,2.56,4.64.51.89,1.23,1.45,2.36,1.54,7.91.58,15.54-.78,22.93-3.44,4.36-1.57,8.6-3.47,13.17-5.34Zm-69.28-3.59c-.51.8-.03,1.56,1.02,2.02,1.1.48,2.16,1.09,3.17,1.73,1.54.98,2.98,2.13,4.55,3.06,1.51.91,3.13,1.65,4.71,2.45,1.88.95,3.84,1.53,5.98,1.44.64-.03,1.3.29,1.94.45.36.09.71.2,1.07.27,1.09.21,2.19.41,3.29.58.24.04.59-.01.75-.17.14-.15.19-.54.1-.73-.19-.39-.47-.74-.76-1.07-.91-1.04-1.85-2.02-2.37-3.39-.71-1.86-1.73-3.61-2.6-5.41-.82-1.71-2.21-2.29-4.02-2.12-3.35.31-6.71.6-10.06.92-.37.03-.73.16-1.08.3-1.95.75-3.85.72-5.69-.33Zm108.55-4.56c-1.62,1.57-1.92,3.28-.88,5.36,1.33,2.65,3.39,4.74,5.4,6.85.83.87,1.99,1.22,3.35,1.32-2.19-3.64-4.32-7.15-6.41-10.67-.54-.91-.97-1.89-1.46-2.86Zm77.73-31.7c-.16-1.26.48-1.59,1.38-1.73.29-.04.55-.3.83-.46-1.3-.07-2.52-.19-3.73-.19-2.21,0-4.41.07-6.62.13-.98.03-1.72.45-2.25,1.49.97.05,1.78.07,2.58.15,1.68.16,3.36.35,5.04.51.22.02.53.04.64-.09.68-.78,1.34-.6,2.12.18Zm-48.05,65.64c0-.42.03-.55,0-.68-.92-3.47-3.7-5.15-6.56-6.72-.1-.06-.68.4-.68.61,0,.32.27.68.51.94,1.33,1.41,2.64,2.86,4.06,4.17.72.66,1.67,1.06,2.67,1.68Zm-95.96-39.48c.68,0,1.56.27,2-.05,1.36-.98,2.68-2.09,3.75-3.37.64-.76.93-1.72,2.02-2.14.95-.37,1.08-1.21.51-1.87-3.02,2.09-5.87,4.38-8.28,7.42Z"/>
  <path class="cls-1" d="m39.39,88.69c1.62-.2,2.36.49,2.57,1.86,0,0-.11.16-.26.2-3.22.98-6.43,1.97-9.66,2.88-.59.17-1.26.02-1.91.02-.28-1.72-.3-3.17,1.45-3.96.06-.03.13-.07.16-.13,1.75-3.04,5.06-4.24,7.54-6.42,1.04-.91,1.97-1.95,3.02-2.84.35-.3.91-.34,1.37-.49.54-.39,1.13-.82,1.72-1.26.46-.35.89-.75,1.37-1.06,1.72-1.09,3.45-2.15,5.18-3.23.26-.16.59-.28.74-.52.77-1.19,2.01-1.47,3.22-1.97,2.45-.99,4.86-2.11,7.18-3.37,2.06-1.12,3.97-2.5,6.28-3.13.91-.25,1.58-.86,1.95-1.81.17-.43.59-.85,1-1.09,3.82-2.22,7.66-4.41,11.51-6.6.56-.32,1.14-.65,1.75-.83,2.24-.68,4.08-2.04,5.97-3.35,1.26-.87,2.65-1.54,3.9-2.42,1.41-.98,2.85-1.76,4.45-2.44,2.69-1.14,5.11-2.94,7.64-4.48,1.01-.62,1.99-1.29,3.01-1.89,1.06-.61,2.2-1.09,3.22-1.75,3.51-2.28,6.96-4.65,10.46-6.93,4.67-3.05,9.36-6.06,14.07-9.05.35-.22.9-.12,1.36-.18.22-.03.47-.06.66-.16.97-.56,1.93-1.14,2.88-1.74,1.19-.75,1.93-1.84,2.06-3.24.1-1.03.68-1.63,1.43-2.22.68-.54,1.34-1.14,1.87-1.83,1.06-1.37,2.02-2.82,3.02-4.23.5-.7.63-1.42.13-2.18-.28-.43-.51-.89-.84-1.28-.25-.3-.59-.65-.94-.72-1-.21-2.03-.28-3.05-.43-.29-.04-.57-.15-.85-.25-.13-.04-.26-.2-.35-.18-2.11.52-4.2-.78-6.23-.24-1.65.44-3.32.36-4.97.79-2.58.67-5.3.79-7.93,1.29-5.01.95-10,1.96-14.98,3.05-1.75.38-3.42.98-5.23,1.22-1.86.25-3.67.97-5.47,1.56-1.94.64-3.83,1.4-5.76,2.06-.54.18-1.13.29-1.7.28-.85-.02-1.64-.01-2.16.81-.07.1-.27.24-.31.21-1.06-.71-1.55.42-2.29.71-.32.13-.61.31-.94.4-4.62,1.38-9.08,3.2-13.74,4.49-5.58,1.54-10.97,3.81-16.41,5.85-2.32.87-4.58,1.9-6.84,2.92-.77.35-1.4,1.08-2.19,1.28-1.96.49-3.4,1.9-5.18,2.7-1.05.47-1.93,1.34-2.89,2.02-.27.19-.55.43-.86.48-2.87.47-5.07,2.23-7.4,3.75-.2.13-.35.42-.42.67-.17.6-.58.71-1.14.92-.99.38-1.92,1.02-2.73,1.72-.44.38-.7.78-1.38.86-.5.06-1.07.44-1.42.84-1.36,1.58-3.27,2.03-5.14,2.47-.38.09-1.14-.48-1.35-.93-.22-.49-.15-1.24.07-1.76.21-.49.81-.81,1.18-1.25.53-.62,1.04-1.26,1.5-1.92.35-.5.5-1.27.97-1.55,1.41-.85,2.84-1.78,4.65-1.51,1.53.23,2.98.17,4.11-1.16.26-.31.77-.4,1.16-.6.45-.23,1.01-.38,1.32-.74,1.09-1.26,2.47-1.98,4.02-2.5.57-.19,1.14-.51,1.59-.9,3.12-2.73,6.87-4.45,10.56-6.1,2.56-1.15,5.04-2.48,7.62-3.55,3.92-1.63,7.97-2.93,11.97-4.38,1.91-.69,3.74-1.62,5.87-1.58.44,0,.94-.35,1.33-.64.95-.7,1.9-1.29,3.15-1.25.46.01.97-.11,1.38-.33,2.2-1.17,4.65-1.47,7.02-2.09.65-.17,1.28-.45,1.91-.68,2.32-.85,4.63-1.72,6.95-2.56.89-.32,1.8-.59,2.71-.87.19-.06.39-.16.58-.14,1.97.18,3.72-.62,5.55-1.16,1.42-.42,2.91-.62,4.36-.92.2-.04.4-.07.59-.12,1.84-.44,3.67-.91,5.52-1.32,2.38-.52,4.85-.6,7.1-1.69.43-.21,1-.17,1.5-.16,1.68.06,3.24-.32,4.71-1.13.2-.11.42-.21.64-.23,1.44-.15,2.88-.27,4.32-.43,3.66-.39,7.32-.58,10.98.01,1.14.18,2.3.3,3.45.34,2.37.09,4.25.99,5.26,3.22,1.06,2.32,1.18,4.72-.45,6.78-3.81,4.81-7.69,9.58-13.23,12.59-1.36.74-2.51,1.74-3.23,3.18-.11.23-.52.34-.81.44-.61.23-1.32.29-1.85.64-2.25,1.47-4.44,3.03-6.67,4.54-.31.21-.68.31-.99.51-1.21.78-2.42,1.59-3.62,2.38-.17.11-.32.26-.5.35-5.19,2.4-9.83,5.68-14.51,8.92-.48.33-.92.73-1.45.96-5.93,2.56-11.09,6.5-16.77,9.5-.97.52-2.02.79-2.85,1.67-.53.57-1.58.61-2.33,1.01-2.36,1.26-4.69,2.57-7.03,3.89-.56.32-1.07.73-1.62,1.06-1.39.81-2.8,1.59-4.21,2.37-.11.06-.25.08-.37.15-1.32.8-2.61,1.67-3.97,2.4-3.74,2-7.54,3.89-11.26,5.93-1.51.83-2.86,1.95-4.28,2.93-.17.12-.32.26-.49.36-2.49,1.39-4.99,2.77-7.48,4.17-.5.28-.96.65-1.42.99-.6.44-.95.95-.89,1.8.1,1.24-.4,2.32-1.31,3.21-.38.37-.72.79-1.3,1.43Z"/>
  <path class="cls-1" d="m267.02,180.5c1.31-2.11,1.19-2.32-.32-4.17-2.4-2.94-3.72-6.23-2.66-10.11.14-.52.24-1.06.34-1.6.29-1.43.96-2.06,2.38-2.23,1.07-.12,2.15-.32,3.23-.33.68,0,1.42.15,2.04.44,1.64.76,3.48,1.35,3.81,3.54.01.09.12.16.21.29.22-.13.44-.25.68-.39.06.07.14.13.19.22.44.73.86,1.47,1.31,2.19.66,1.06.77,2.15.25,3.31-.44.99-.82,2.01-1.25,3.02-.47,1.11-1.21,1.94-2.32,2.47-.44.2-.79.59-1.39,1.07.76.52,1.31,1.06,1.97,1.3,1.04.39,2.15.69,3.25.83,1.32.17,1.95-.94,2.64-1.8.55-.69.4-1.39-.15-2.04-.12-.15-.22-.35-.24-.54-.29-2.49-.54-4.99-.84-7.48-.08-.69.13-1.15.83-1.27.62-.1.77-.46.71-1.01-.03-.27-.11-.58,0-.81.21-.47.43-1.07.83-1.27.32-.16.97.09,1.34.35.98.68,1.54,1.66,1.86,2.83.34,1.23.86,2.42,1.29,3.63.07.21.13.44.1.66-.23,1.74-.46,3.48-.74,5.21-.07.43-.36.82-.45,1.25-.09.45-.25,1.05-.04,1.37,1.28,2.04,2.49,4.18,4.07,5.97.98,1.11,2.56,1.72,3.93,2.44.26.14.8-.24,1.2-.41.74-.33,1.47-.69,2.22-1.04.3,1.63-.78,3.09-2.44,3.21-.87.06-1.76-.11-2.63-.23-.5-.07-.98-.34-1.48-.36-1.49-.06-2.25-.84-2.58-2.23-.19-.83-.64-1.4-1.67-1.27-.23.03-.58-.35-.75-.62-.28-.45-.39-1.02-.7-1.45-1.05-1.46-1.75-1.6-3.23-.56-1.47,1.03-3,.92-4.59.49-1.57-.42-3.11-1.03-4.7-1.28-1.93-.3-3.88-.12-5.73.61-1.35.53-2.46.21-3.55-.77-1.46-1.33-2.56-2.86-3.48-4.61-1.57-2.97-3.3-5.86-4.97-8.78-.1-.18-.26-.36-.27-.55-.06-1.87-1.46-2.69-2.87-3.66-.07.56-.14,1.08-.19,1.59-.14,1.4-.59,2.64-1.59,3.67-.21.21-.29.59-.33.91-.34,2.59-.67,5.18-.97,7.78-.06.56-.16,1.23.07,1.7.74,1.53.26,3.02.03,4.51-.11.71-1.34,1.42-2.18,1.45-.83.02-1.01-.63-1.19-1.19-.36-1.13-.68-2.27-.91-3.43-.66-3.3-1.27-6.6-1.88-9.91-.12-.67-.24-1.34-.26-2.02-.03-.98-.21-1.87-.88-2.65-.26-.31-.36-.79-.44-1.22-.4-2.25-.62-4.55-1.16-6.76-1.61-6.53-3.37-13.03-5.01-19.55-.86-3.42-1.61-6.87-2.36-10.32-.18-.82-.17-1.69-.2-2.54-.04-1.12-.45-1.97-1.52-2.43-.69-.3-.99-.83-1.09-1.59-.13-1.01-.39-2-.61-2.99-.34-1.59-.15-3.05,1.03-4.27.56-.59,1.21-.75,1.74-.04.62.83,1.38,1.68,1.62,2.64.89,3.52,1.77,7.07,2.33,10.65.99,6.31,3.03,12.35,4.64,18.49.74,2.82,1.64,5.6,2.32,8.44.77,3.23,1.38,6.5,2.05,9.75.08.4.04.82.15,1.21.16.57.4,1.12.63,1.73.97-.48,1.41-.92,1.46-1.82.03-.64.45-1.26.74-1.87.4-.86.88-1.69,1.24-2.56.28-.67.69-1.01,1.42-1.12,1.34-.2,2.63-.18,3.9.4.87.4,1.55.9,1.91,1.85.19.51.71.9,1.02,1.38.46.72.87,1.48,1.3,2.22.1.16.18.4.32.46.9.38,1.04,1.13.96,1.95-.09.88.21,1.56.77,2.23.32.38.39.95.57,1.45.06.15.06.33.12.47.77,1.7,1.56,3.39,2.33,5.09.41.9.74,1.82,2.01,1.84.47.01.92.39,1.43.62Zm4.97-3.3c1.16-1.36,2.31-2.41,3.08-3.7.62-1.03,1.06-2.35,1.03-3.53-.02-.95-.79-1.93-1.39-2.77-.21-.29-.94-.16-1.4-.32-.51-.18-.99-.44-1.46-.71-.53-.31-.99-.79-1.55-.97-.59-.18-1.41-.33-1.87-.05-.46.28-.65,1.07-.86,1.67-.12.33.08.82-.09,1.08-1.34,2.01-.13,3.75.8,5.28.89,1.47,2.36,2.59,3.71,4.01Z"/>
  <path class="cls-1" d="m88.46,213.65c-2.11.56-3.56-.54-3.8-2.69-.19-1.64-.57-3.26-.87-4.89-.42-2.27-.7-4.57-1.31-6.79-.86-3.17-2.06-6.26-2.93-9.43-.58-2.09-1.91-4.02-1.52-6.35.02-.1.02-.21,0-.3-.4-1.27-.82-2.53-1.21-3.81-.13-.44-.19-.91-.24-1.37-.17-1.37-.3-2.75-.47-4.12-.07-.6-.31-1.2-.28-1.8.05-1.22.31-2.45-.56-3.52-.05-.07-.04-.2-.04-.3,0-4.22-.3-8.49,1.24-12.52.68-1.78,1.65-3.54,2.86-5,2.35-2.84,6.23-3.64,9.44-1.75,2.05,1.21,3.77,3.06,5.44,4.81,1.01,1.05,1.66,2.46,2.57,3.85.65-.44,1.29-.79,1.85-1.25.99-.82,2-1.1,3.19-.44.44.24.99.3,1.41.57.46.3,1.02.67,1.2,1.14.31.8.85,1.12,1.57,1.44,2.48,1.11,4.7,2.49,5.28,5.48.1.51.59.94.89,1.41.13-.02.27-.05.4-.07,0-1.31-.13-2.64.07-3.92.13-.84.74-1.61,1.08-2.3,1.7-.04,2.08.99,2.18,2.31.09-.05.18-.09.27-.14.08-.33.15-.66.26-1.15.87.65,1.68,1.08,1.77,2.33.07.94.58,1.84.88,2.77.16.48.29.96.43,1.44.18.6.38,1.19.53,1.8.06.23.08.51,0,.72-.33.96-.96,1.9-.99,2.87-.07,2.06-.53,3.93-1.52,5.74-.45.82-.07,1.71.47,2.48.64.91,1.22,1.88,1.83,2.81.2.31.41.64.67.89,1.43,1.41,4.9,1.66,6.6.44.3.19.63.4,1.01.65-.89.93-1.65,1.85-2.54,2.62-1.1.95-2.37.68-3.57.16-1.18-.51-2.42-1-3.45-1.75-.71-.52-1.12-1.46-1.64-2.22-.4-.58-.73-1.23-1.19-1.76-.85-.98-1.77-1.2-3.15-.74-2.38.78-4.89,1.49-7.41.31-.24-.11-.51-.19-.78-.23-3.68-.51-5.93-2.79-7.4-6-.26-.57-.32-1.24-.48-1.86-.07-.3-.07-.64-.22-.88-.28-.41-.65-.76-.99-1.13-.32.35-.68.66-.95,1.04-.72,1.03-1.37,2.11-2.11,3.12-.86,1.16-1.81,2.26-2.69,3.41-.16.2-.26.49-.29.75-.14,1.1-.53,2.01-1.56,2.59-.23.13-.43.48-.46.75-.16,1.38-.8,2.35-2.09,2.96-.98.46-1.4,1.4-1.36,2.45.05,1.29.2,2.58.35,3.86.13,1.15.31,2.29.47,3.43,0,.07,0,.14.02.2.63,2.28,1.3,4.55,1.88,6.84.29,1.13.4,2.3.62,3.45.06.31.24.6.35.9.65,1.85,1.36,3.7.98,5.71Zm-5.22-27.98c2.04-1.48,3.28-3.38,4.27-5.52.51-1.1,1.14-2.17,1.89-3.12,1.1-1.37,2.46-2.55,3.13-4.22.5-1.25.91-2.54,1.26-3.84.36-1.33.51-2.72.9-4.03.22-.76.67-1.41-.06-2.13-.17-.17-.14-.58-.13-.87.08-2.93-.69-5.6-3-7.48-1.43-1.16-3.12-2.03-4.78-2.86-2.01-1-3.54-.56-4.75,1.32-1.7,2.63-2.99,5.42-2.69,8.68.02.27.03.56-.04.81-.74,2.81.12,5.51.58,8.23.42,2.47,1.03,4.91,1.35,7.4.34,2.62,1.01,5.12,2.09,7.62Zm27.27-15.73c-.3-.76-.66-1.28-.7-1.82-.1-1.49-.65-2.59-1.98-3.39-.76-.46-1.39-1.19-1.96-1.9-.98-1.24-1.85-2.56-2.78-3.84-.09-.13-.25-.24-.39-.3-1.2-.56-2.56.06-2.9,1.35-.35,1.35-.64,2.71-.96,4.07-.84,3.48-.85,6.87,1.09,10.06.25.4.34.89.57,1.31.26.47.49,1.02.9,1.33,1.51,1.16,2.99,2.38,4.64,3.3,2.41,1.34,5.12.77,7.02-1.15.54-.54.74-1.12.48-1.84-.93-2.61-1.09-5.31-1-8.05,0-.24-.03-.49-.05-.84-.64.56-1.17,1.02-1.99,1.73Zm7.84-1.87c-1.4-.52-1.87-1.72-1.84-3.21,0-.2.07-.48-.04-.6-.22-.25-.53-.43-.81-.63-.15.28-.41.55-.43.84-.06.74-.03,1.49,0,2.24.04.88-.15,1.89.22,2.6.82,1.59.52,2.99-.11,4.49-.14.33.04.79.07,1.19.43-.1.97-.07,1.28-.32.92-.76,1.16-1.87,1.25-3.02.09-1.14.25-2.28.4-3.58Z"/>
  <path class="cls-1" d="m207.01,150.02c.61-5.37,3.94-8.82,7.3-12.26.19-.19.4-.35.57-.82-1.43,0-2.94-.31-4.26.06-3.2.9-6.44.92-9.69,1.1-2.1.12-4.2.38-6.29.63-.35.04-.72.34-.99.61-.53.53-1.03.87-1.78.37-.18-.12-.56-.03-.81.07-.84.35-1.63.89-2.49,1.1-3.07.73-5.74,2.28-8.39,3.88-.52.32-1,.72-1.56.97-1.76.79-2.23,2.26-2.19,4.01.01.61.07,1.23.16,1.83.04.25.17.64.34.7,1.48.44,2.1,1.94,3.34,2.66.82.47,1.67.9,2.52,1.32.76.37,1.54.74,2.34,1,.39.13.85,0,1.28.01.33.01.72-.05.96.11.94.63,1.9,1.04,3.06.82.23-.04.48-.06.71-.03,2.99.38,5.97.89,8.97,1.14,2.81.22,5.64.15,8.47.24.49.02.98.19,1.47.3.13.03.25.14.38.14,1.87.09,3.75.03,5.6.26,4.8.61,9.71.32,14.42,1.75,1.07.33,1.66.92,2.03,1.92.7,1.91.67,3.66-.54,5.42-1.85,2.7-3.93,5.26-6.66,6.97-2.05,1.28-3.89,2.79-5.87,4.13-.59.4-1.27.65-1.89.99-2.08,1.14-4.35,2.06-6.2,3.5-4.21,3.28-8.94,5.29-14.05,6.51-1.97.47-4,.76-6.02.94-1.27.12-2.1-.64-2.19-1.67-.03-.3.09-.68.28-.9.09-.1.56,0,.77.15.85.58,1.69.51,2.62.19.75-.26,1.58-.32,2.36-.52,1.17-.3,2.34-.6,3.49-.97,1.71-.55,3.37-1.23,5.09-1.73,1.81-.52,3.55-1.12,5.1-2.25.93-.68,2.01-1.15,2.95-1.82,1.02-.73,1.94-1.58,2.91-2.38.44-.36.85-.81,1.35-1.06,3.15-1.6,5.87-3.8,8.32-6.27,1.88-1.9,3.45-4.11,5.11-6.23.67-.86.49-1.47-.63-1.7-2.36-.48-4.76-.77-7.13-1.21-5.25-.97-10.59-.68-15.88-1.02-2.85-.18-5.7-.38-8.55-.58-.17-.01-.35-.02-.5-.09-1.3-.68-2.7-.74-4.09-.55-2.23.3-4.33-.13-6.39-.91-.55-.21-1.05-.39-1.61.07-.2.16-.74.08-1.02-.07-1.35-.71-2.66-1.51-4.01-2.23-.72-.39-1.52-.65-2.24-1.04-.36-.2-.7-.51-.95-.84-.51-.7-.89-1.5-1.44-2.16-1.37-1.62-2.46-3.33-1.82-5.55.23-.8.67-1.56,1.14-2.26.83-1.24,1.72-2.45,2.65-3.62.32-.4.83-.9,1.27-.91.83-.02,1.25-.5,1.8-.95.73-.6,1.52-1.19,2.38-1.54,5.65-2.3,11.54-3.84,17.62-4.04,3.99-.13,7.77-1.19,11.66-1.67,2.69-.33,5.35-.95,8.02-1.49.96-.2,1.89-.56,2.84-.81.52-.14,1.06-.29,1.59-.28.37,0,.96.16,1.06.41.22.54.31,1.23-.4,1.61-.9.47-1.84.89-2.72,1.39-1.64.94-3.29,1.87-4.87,2.91-1.25.83-2.54,1.7-3.56,2.78-1.32,1.4-2.63,2.9-2.94,4.95-.03.19-.16.37-.28.53-.81,1.03-1.62,2.06-2.45,3.07-.22.27-.51.49-.92.87Z"/>
  <path class="cls-1" d="m327.88,188.1c-.93,1.27-.98,1.27-2.33.68-.71-.31-1.5-.47-2.2-.82-.81-.4-1.53-.97-2.33-1.4-.91-.49-1.84-.95-2.79-1.35-.86-.36-1.84-.48-2.64-.93-1.73-.97-3.5-1.73-5.42-2.3-1.6-.48-3.02-1.53-4.55-2.25-.73-.34-1.54-.52-2.41-.61,1.36,3.27,1.42,6.89,3.7,9.78-.84.66-.62,1.35-.05,2-1,1.33-1.26,1.34-2.34.14-1.18-1.32-1.98-2.82-2.47-4.52-.69-2.38-1.49-4.73-2.24-7.09-.03-.1-.11-.2-.1-.29.32-1.89-1.06-2.59-2.31-3.46-2.08-1.46-4.19-2.91-6.11-4.57-1.44-1.24-1.5-3.46-.44-5.04,1.41-2.09,2.82-4.17,4.29-6.22.98-1.37,1.47-2.76.65-4.37-.09-.18-.17-.39-.17-.59-.15-4.97-1.88-9.63-2.85-14.44-.59-2.96-1.34-5.89-2.11-8.8-1.31-4.94-2.49-9.92-3.8-14.87-.34-1.27-.82-2.51-1.29-3.75-.4-1.04-.31-1.3.75-1.63,2.06-.64,2.21-.69,2.88,1.41,1.03,3.23,1.8,6.55,2.72,9.82.49,1.72,1.11,3.41,1.6,5.13.33,1.17.53,2.39.81,3.57.7,2.97,1.24,6.01,2.19,8.9.89,2.71,1.16,5.51,1.7,8.27.33,1.7.41,3.44.62,5.16.03.24.12.6.29.68.18.09.53-.03.73-.16.31-.2.59-.47.82-.76,3.11-4.01,6.22-8.01,9.3-12.04,1.2-1.57,2.26-3.2,2.4-5.31.07-1.04.7-1.97,1.78-2.29.5-.15,1.3-.15,1.59.15.26.26.04,1.03-.04,1.57-.03.24-.22.46-.38.76.43.14.76.24,1.1.34-1.42.43-1.59,1.65-1.94,2.77-.72,2.28-1.43,4.57-3.67,5.93-.26.16-.43.63-.46.97-.11,1.15-.77,1.9-1.58,2.63-.8.72-1.48,1.56-2.22,2.35-.78.84-1.58,1.67-2.36,2.51-.41.45-.85.89-1.2,1.38-.74,1.06-1.45,2.11-2.67,2.75-.35.18-.45.91-.57,1.41-.08.32,0,.68.05,1.01.36,2.24.78,4.46,1.07,6.71.14,1.1.1,2.24.03,3.36-.18,3.07.64,4.34,3.4,5.7,4.85,2.38,9.64,4.89,14.49,7.28,1.58.78,3.22,1.44,4.88,2.03,1.64.58,3.08,1.38,4.22,2.69Zm-30.23-25.61c-.89,1.35-1.63,2.54-2.44,3.68-.24.34-.71.52-1,.85-.24.27-.58.79-.48.96.46.77.96,1.58,1.65,2.13.6.48,1.61,1.05,2.18.85,1.02-.35.87-1.59.79-2.51-.16-1.88-.44-3.74-.7-5.94Z"/>
  <path class="cls-1" d="m362.71,180.14c0,1.4.04,2.61-.02,3.82-.02.43-.26.85-.4,1.27-.36-.18-.72-.36-1.16-.58-1.25.56-1.86.16-1.77-1.42.04-.75-.18-1.28-.69-1.82-.3-.31-.49-.79-.58-1.23-.17-.84-.6-1.28-1.39-1.69-2.47-1.26-3.38-3.07-1.79-5.1.75-.95,1.01-1.83.43-2.99-.24-.47-.11-1.13-.11-1.71-.04-2.43.4-4.89-.6-7.26-.21-.49-.1-1.25.13-1.78,1.02-2.37,1.96-4.8,3.26-7.02,1.91-3.25,4.82-4.95,8.72-4.83,2.66.08,5.3.14,7.83,1.12,2.1.82,3.65,2.33,4.71,4.2.73,1.28.3,2.82-.42,4.08-1.44,2.52-3.51,4.48-5.83,6.21-.6.44-1.06,1.07-1.65,1.52-.74.56-1.54,1.03-2.33,1.52-.1.06-.4.03-.44-.05-.1-.19-.17-.45-.11-.64.09-.28.31-.51.39-1.05-.32.07-.75.02-.95.22-1.04,1-2.38,1.73-2.89,3.24-.11.32-.66.49-1.05.76.17.94-.52,1.83-1.51,2.31-.75.37-1.36,1.05-1.99,1.64-.14.13-.17.46-.13.67.16.84.14,1.85.62,2.45.52.64,1.48,1.03,2.32,1.28,1.38.41,2.82.69,4.25.88.49.07,1.07-.24,1.56-.47.25-.12.34-.53.58-.69.42-.29.91-.5,1.37-.74.16.45.37.88.46,1.34.1.55.09,1.13.12,1.62.81,0,1.5-.06,2.17,0,4.26.44,8.57.68,12.77,1.44,4.44.8,8.87.73,13.32.78,1.15.01,1.47.76.8,1.83-.84-.92-1.72-.59-2.69-.19-.55.23-1.22.15-1.83.21-.26.02-.56-.03-.78.08-.94.49-1.85.27-2.8.04-.46-.11-.99.09-1.49.06-3.53-.22-7.05-.47-10.58-.7-1.53-.1-3.05-.19-4.58-.28-.27-.02-.57.04-.81-.06-2.24-.86-4.55-.65-6.86-.52-.52.03-1.05-.15-1.57-.25-.36-.07-.71-.17-1.07-.26-.3-.08-.62-.12-.9-.24-.63-.29-1.25-.63-2.05-1.03Zm-2.39-10.73c.43-.48.68-.97,1.06-1.15,1.88-.91,2.95-3.01,5.14-3.44.15-.03.28-.19.4-.3,1.38-1.32,2.54-2.82,4.31-3.79,1.27-.69,2.25-1.95,3.34-2.97,1.04-.98,1.59-2.22,1.52-3.65-.02-.44-.37-1.06-.75-1.26-1.43-.79-2.92-1.45-4.4-2.12-.25-.12-.64-.2-.86-.08-1.32.68-2.61.3-3.83-.17-1.04-.4-1.85-.21-2.61.5-.89.84-1.81,1.66-2.61,2.58-.57.66-1.03,1.43-1.4,2.22-.51,1.07-.95,2.18-1.28,3.31-.22.75-.37,1.6-.26,2.36.18,1.3.56,2.59.92,3.86.39,1.36.86,2.7,1.31,4.11Z"/>
  <path class="cls-1" d="m0,135.9c.41-.32.69-.52.95-.75,1.75-1.57,2.01-1.53,3.31.42.53.8,1.28,1.28,2.29,1.28,3.06,0,6.13.01,9.19-.02.46,0,.9-.27,1.37-.34.65-.09,1.31-.11,1.97-.16.33-.02.7.05.98-.07,2.25-1.02,4.5-2.05,6.73-3.13,1.04-.51,2.01-1.11,3.26-1,.33.03.81-.25,1.02-.54.58-.79,1.34-1.02,2.24-.91.87.11,1.57-.16,2.26-.7,2.01-1.56,4.46-2.13,6.81-2.92.86-.29,1.67-.75,2.52-1.06.62-.22,1.29-.34,1.94-.47.79-.17,1.64-.17,2.37-.48,2-.84,3.97-1.78,5.92-2.73,1.15-.56,2.05-.38,2.35.6.07.22-.03.64-.2.75-.62.41-1.27.79-1.95,1.09-2.94,1.31-5.88,2.65-8.87,3.87-1.6.65-3.32,1-4.92,1.64-3.69,1.48-7.35,3.03-11.01,4.59-.93.39-1.56,1.74-1.2,2.99.62,2.16.88,4.31.61,6.54-.05.38.07.84.25,1.18.33.62.45,1.17.02,1.81-.12.18.02.55.09.82.15.56.34,1.1.52,1.65.38,1.15.76,2.3,1.13,3.46.1.3.2.63.19.94-.08,1.65,0,3.26.83,4.76.19.35.32.77.35,1.16.21,3.23,1.05,6.33,1.98,9.41.45,1.5.62,3.08.91,4.62.02.1.02.2.05.3.6,1.89,1.21,3.78,1.8,5.68.12.38.32.83.23,1.18-.32,1.2.27,2.03.95,2.86.66.8,1.25,1.6,1.05,2.75-.1.62.22.85.88.63.27-.09.79,0,.91.19.26.41.6,1.1.43,1.38-.54.88-1.26,1.67-2.01,2.39-.18.17-.87.12-1.06-.09-.59-.63-1.12-1.34-1.54-2.09-.53-.94-.97-1.95-1.39-2.95-.41-.97-.94-1.93-1.09-2.95-.18-1.22-.33-2.37-.94-3.49-.32-.59-.22-1.4-.35-2.1-.21-1.14-.4-2.29-.7-3.41-.23-.84-.61-1.64-.92-2.46-.21-.56-.48-1.12-.61-1.7-.34-1.51-.52-3.07-.95-4.55-.6-2.06-1.31-4.08-1.08-6.29.04-.34-.17-.71-.32-1.05-.52-1.17-1.31-2.25-.96-3.66.05-.2-.07-.46-.17-.67-1.25-2.69-1.94-5.5-1.89-8.49.02-.93-.1-1.93-.43-2.8-.46-1.19-.36-2.25.1-3.36.12-.28.32-.56.33-.85.02-.46.03-1.25-.18-1.33-.5-.19-1.36-.29-1.66,0-1.48,1.43-3.38,1.57-5.22,2.07-5.06,1.38-10.19,1.11-15.33.99-1.22-.03-1.56-.36-1.51-1.61.02-.55-.17-.78-.66-1.07-.7-.41-1.25-1.09-1.99-1.79Z"/>
  <path class="cls-1" d="m340.39,181.39c-.36,2.48-1.74,4.06-3.25,5.55-.37.36-.6.49-1.19.17-1.31-.72-2.74-1.21-4.12-1.81-.19-.08-.38-.23-.51-.39-.17-.21-.25-.49-.42-.69-3.81-4.6-4.86-10.37-6.7-15.81-.52-1.54-.81-3.16-1.17-4.75-.05-.21.05-.59.2-.7.78-.51,1.61-.96,2.58-1.51-.01,3.66,1.24,6.83,2.32,10.02.64,1.89,1.79,3.61,2.42,5.5.58,1.74,1.46,3.16,2.82,4.35.66.58,1.22,1.27,1.81,1.9,1.78-.88,2.29-1.94,2.29-3.84,0-1.48.32-2.96.5-4.44.08-.67.2-1.35.22-2.03.07-3.13.14-6.26.15-9.39,0-.61-.28-1.22-.42-1.84-.06-.27-.17-.59-.09-.82.29-.83.66-1.64,1-2.45.3-.73.85-.72,1.52-.6.77.13.6.63.63,1.14.21,3.67.45,7.34.67,11.01.11,1.93-.2,4,.39,5.77,1.19,3.54,1.99,7.31,4.41,10.33,1.97,2.45,2.24,2.43,4.43.15.02-.02.05-.05.07-.07.48-.41.83-1.31,1.64-.79.82.51.37,1.33.21,2.04-.01.07-.04.13-.07.19-1.15,2.56-6.19,3.23-7.72.88-1.37-2.11-3.56-3.72-4.05-6.39-.03-.16-.24-.29-.58-.67Z"/>
  <path class="cls-1" d="m138.42,148.81c.59.11,1.18.27,1.77.31,1.02.07,1.7.39,1.99,1.51.26,1.01.79,1.94,1.25,3.02-.09.14-.25.38-.45.68.13.16.25.37.43.5,1.05.74.77,1.8.66,2.79-.02.17-.37.41-.58.44-.82.1-1.51-.19-1.8-1.01-.34-.95-.64-1.92-.87-2.9-.38-1.59-2.05-2.39-3.5-1.6-.2.11-.37.3-.49.49-.4.6-.76,1.22-1.15,1.83-.72,1.11-1.47,2.2-2.17,3.32-.47.75-.76,1.62-1.3,2.3-2.09,2.67-2.86,5.78-2.94,9.06-.06,2.74-.13,5.5.85,8.17.41,1.12,1,1.96,1.92,2.68,3.38,2.65,7.12,3.2,11.17,1.92,2.2-.69,4.41-1.32,6.38-2.63.7-.47,1.74-.48,2.64-.56.7-.06,1.13-.26,1.54-.89.59-.9,1.35-1.7,2.12-2.46,1.31-1.28,2.72-2.47,4.03-3.76.58-.57,1.13-.3,1.68-.12.06.02.06.74-.12.92-1.05,1-2.16,1.94-3.25,2.89-.64.56-1.27,1.12-1.94,1.64-1.43,1.12-2.96,2.07-4.28,3.37-2.37,2.32-5.36,3.67-8.52,4.61-.8.24-1.54.66-2.32.96-.23.09-.5.16-.74.11-1.57-.27-3.13-.62-4.7-.86-1.85-.29-3.45-.98-4.66-2.47-.26-.32-.53-.64-.86-.87-2.63-1.86-3.79-4.5-3.93-7.61-.12-2.75-.2-5.52-.06-8.27.13-2.73,1.52-5.04,2.97-7.29.4-.62.7-1.31,1.06-1.95.43-.77.84-1.55,1.34-2.28.67-.98,1.35-1.97,2.14-2.86.55-.62,1.27-1.11,1.97-1.57.88-.57,1.81-1.05,2.74-1.58Z"/>
  <path class="cls-1" d="m44.5,154.92c.41.32.75.59,1.14.9-1.06,1.58.12,2.91.59,4.21,1.19,3.28,2.51,6.54,4.07,9.65.8,1.6,2.2,2.91,3.37,4.31.56.67,1.19,1.32,1.89,1.84.41.31,1.04.51,1.53.45.39-.05.92-.53,1.04-.92.73-2.36,1.42-4.74,2-7.14.19-.78.03-1.66-.05-2.49-.11-1.25-.37-2.49-.41-3.74-.07-1.77.05-3.54,0-5.31-.02-.65-.21-1.33-.46-1.95-.34-.83-.12-1.67.73-2.17.83-.48,1.22.09,1.64.68.62.86,1,1.76.79,2.86-.06.33-.06.7.05,1.01,1.17,3.45.54,7.02.74,10.54.02.4.07.82.22,1.18,1.09,2.52,2.15,5.06,3.34,7.54.92,1.92,1.96,3.8,3.09,5.61.33.52,1.16.76,1.8,1.04.41.18.9.21,1.39.31-1.49,1.34-2.54,1.4-3.87.16-1.07-1-2.1-2.04-3.09-3.12-1.66-1.84-2.73-3.97-3.07-6.45-.04-.3-.42-.55-.64-.83-.21.28-.48.54-.62.85-.28.61-.47,1.26-.73,1.89-.28.69-.63,1.35-.87,2.06-.49,1.44-1.61,2.16-3.02,1.6-1.08-.43-2.05-1.16-3.03-1.8-.81-.53-1.61-1.09-2.36-1.72-.47-.39-.89-.87-1.21-1.39-.5-.81-.84-1.71-1.33-2.52-1.47-2.42-2.88-4.85-3.71-7.58-.21-.67-.87-1.19-1.16-1.85-.31-.71-.44-1.5-.63-2.26-.13-.5-.29-1-.34-1.51-.05-.64-.14-1.33.04-1.92.2-.66.68-1.24,1.14-2.01Z"/>
  <path class="cls-1" d="m43.33,89.33c.93-.19,1.86-.38,2.97-.61-.65,1-.69,1.01-2.92.89-.02-.1-.03-.19-.05-.29Z"/>
</svg>