<?xml version="1.0" encoding="UTF-8"?>
<svg id="Layer_2" data-name="Layer 2" xmlns="http://www.w3.org/2000/svg" viewBox="0 0 230.74 130.66">
  <defs>
    <style>
      .cls-1 {
        fill: #fcfcfc;
        stroke-width: 0px;
      }
    </style>
  </defs>
  <g id="Layer_1-2" data-name="Layer 1">
    <path class="cls-1" d="m87.65,103.82c-1.09,4.05-1.98,8.17-3.35,12.12-.69,1.99-2.16,3.73-3.41,5.49-7.32,10.32-10.2,11.04-21.34,6.78-3.36.63-6.71,1.76-10.07,1.79-16.28.19-32.57.09-48.86.09-.2-.55-.41-1.1-.61-1.66,1.03-1.33,1.97-2.75,3.11-3.99,13.64-14.77,27.81-29.1,40.79-44.44,7.56-8.93,13.46-19.33,19.58-29.39,1.42-2.34,1.21-6.07.81-9.03-.71-5.25-2.15-10.4-3.27-15.59-.14-.64-.02-1.64-.4-1.87-7.7-4.84-13.48-12.1-24.44-12.31-9.69-.18-16.66,3.11-23.19,8.81-2.99,2.61-5.03,6.34-7.43,9.61-1.06,1.44-1.92,3.02-3.45,4.13C5.41,19.95,12.37,7.47,26.95,3.02c12.39-3.78,25.84-5.59,39.53,4.31-3.89,2.82-7.17,5.19-10.46,7.57.48.54.96,1.08,1.44,1.62,3.18-2.57,6.36-5.15,9.92-8.03,4.92,6.51,10.75,12.24,9.47,21.3-.71,5.05-1.48,10.1-1.98,15.17-.16,1.57.46,3.21.77,5.17-15.83,23.87-36.81,44.11-57.9,65.67,5.6.51,11.21,1.46,16.81,1.42,10.98-.07,21.96-.89,32.95-1,8.59-.09,14.86-3,17.37-11.8.12-.41.62-.71.94-1.06.62.16,1.23.31,1.85.47Z"/>
    <path class="cls-1" d="m123.22,11.22c-1.23-.48-2.5-1.08-3.78-1.17-9.71-.65-19.43-1.18-29.14-1.75-.34.5-.69,1-1.03,1.5,6.02,2.97,5.17,8.12,5.07,13.09-.19,9.15-.28,18.3-.4,27.45-.06,4.67,1.01,9.64-5.29,13.45h18.07c-5.12-3.38-3.33-8.35-3.43-12.79-.04-1.83.17-3.66.08-5.48-.16-3.3,1.01-4.66,4.6-4.6,4.28.08,8.64-.33,12.84-1.14,7.9-1.51,13.66-7.33,14.03-13.56.39-6.65-3.65-11.9-11.6-15Zm-5.87,23.84c-3.59,1.04-7.51,1.2-11.28,1.25-.91.01-2.46-1.9-2.63-3.08-.39-2.77-.13-5.63-.13-8.46-.02,0-.05,0-.07,0,0-.66-.19-1.41.03-1.98,1.18-3.01-3.21-8.18,3.42-9.08,8.55-1.15,15.57,2.29,17.23,8.36,1.39,5.11-1.53,11.53-6.57,12.99Z"/>
    <path class="cls-1" d="m184.32,64.11h-17.59c2.73-2.86,4.55-5.32,2.59-9.72-1.87-4.19-3.7-6.17-8.27-5.51-2.12.31-4.32,0-6.48.05-8.13.17-7.83-1.84-10.42,7.71-.55,2.02.6,4.5,1.02,7.13h-11.87c10.32-15.15,13.72-33.15,21.24-49.38,1.02-2.21,1.03-5.35,4.9-5.25,3.79.1,3.92,3.12,4.79,5.43,4.88,12.87,9.56,25.81,14.51,38.65,1.38,3.58,3.49,6.88,5.56,10.9Zm-19.24-20.1c-2.63-7.21-5.05-13.86-7.95-21.84-3.11,8.08-5.68,14.77-8.39,21.84h16.35Z"/>
    <path class="cls-1" d="m230.7,22.93c-3.7-3.03-6.32-5.48-9.25-7.49-5.89-4.06-13.35-2.61-16.8,3.6-6.25,11.24-6.28,23.01-.79,34.42,3.93,8.18,12.77,9.41,19.62,3.52,2.1-1.81,4.13-3.69,6.38-5.71,2,10.84,1.32,12.86-10.05,13.73-13.52,1.03-24.22-5.22-28.85-16.12-4.84-11.39-2.01-24.54,7.21-33.5,7.55-7.34,21.96-9.24,30.73-3.94.82.5,1.63,1.67,1.71,2.6.23,2.57.08,5.18.08,8.91Z"/>
  </g>
</svg>